<svg width="164" height="70" viewBox="0 0 164 70" fill="none" xmlns="http://www.w3.org/2000/svg">
<g clip-path="url(#clip0_8205_59582)">
<path d="M18.6901 18.1382C28.262 17.245 36.7434 24.2861 37.6267 33.8589C38.51 43.4321 31.4604 51.9058 21.8867 52.7793C12.3267 53.6519 3.86742 46.6145 2.98535 37.0553C2.10338 27.4964 9.13198 19.0299 18.6901 18.1382ZM22.161 50.9383C30.7063 49.9123 36.8001 42.1503 35.769 33.606C34.7379 25.0614 26.9724 18.9723 18.4284 20.0089C9.89209 21.0445 3.80974 28.8014 4.8399 37.3381C5.87015 45.8759 13.6232 51.9625 22.161 50.9383Z" fill="#080C09"/>
<path d="M27.1137 26.4058L29.116 26.3921C29.1549 32.1708 29.1577 37.9499 29.1246 43.7286L27.0543 43.7547L27.0512 32.8968L27.0417 29.9235C25.8853 32.1182 24.5724 34.228 23.3215 36.3694C22.5287 37.7266 21.7923 39.2839 20.8112 40.5044C20.5771 40.5899 20.3233 40.5965 20.0794 40.5406C19.9997 40.522 19.8328 40.4597 19.7723 40.4113C19.2431 39.989 14.2667 31.2471 13.472 29.9214C13.676 31.4934 13.5478 33.2087 13.5469 34.7956L13.5409 43.7119L11.4238 43.7193C11.4894 37.9499 11.3859 32.1764 11.4412 26.4057L13.7466 26.4177C14.7717 28.2505 15.8714 30.0451 16.9344 31.8564C18.0641 33.7813 19.1642 35.7294 20.3644 37.6113C21.5854 35.3815 22.9508 33.2203 24.2634 31.0421C25.1931 29.4994 26.072 27.8747 27.1137 26.4058Z" fill="#080C09"/>
<path d="M133.122 30.5237C133.531 30.4962 133.95 30.4854 134.36 30.4927C135.886 30.5199 137.445 31.3361 138.49 32.4182C139.792 33.7665 140.397 35.647 140.353 37.5019C140.309 39.3894 139.602 41.1839 138.213 42.4788C136.981 43.6258 135.403 44.2397 133.716 44.1765C131.784 44.1039 130.503 43.2899 129.207 41.9067C129.157 42.6983 129.172 43.4993 129.164 44.2928C129.173 45.8686 129.171 47.4444 129.158 49.0212C128.423 49.0938 127.682 49.0873 126.948 49.0008C127.068 46.5607 126.962 44.0621 126.963 41.6155C126.963 37.9764 127.021 34.3275 126.939 30.6895L129.125 30.681C129.082 31.4928 129.092 32.3129 129.08 33.1261C130.265 31.6481 131.253 30.9356 133.122 30.5237ZM134.069 42.2239C135.428 41.969 136.481 41.4146 137.279 40.2415C138.059 39.0741 138.339 37.6424 138.055 36.2675C137.812 35.0422 137.086 33.8841 136.019 33.2145C135.179 32.6874 134.27 32.5426 133.3 32.57C131.953 32.8246 130.861 33.3044 130.053 34.4786C129.292 35.5847 128.965 37.1596 129.222 38.475C129.466 39.7383 130.214 40.8471 131.296 41.5429C132.159 42.0853 133.069 42.2416 134.069 42.2239Z" fill="#080C09"/>
<path d="M92.3299 25.0405C92.6862 25.4067 92.7969 26.3728 93.009 26.8902C90.715 27.8531 87.3893 27.6551 85.5447 29.4172C84.4414 30.4713 84.1781 31.9288 84.1549 33.3815C85.1419 32.1624 86.2237 31.1746 87.8424 30.9041C89.4778 30.6306 91.2108 30.947 92.5522 31.9452C93.9932 33.0179 94.7951 34.5729 95.036 36.3342C95.3123 38.3585 94.8081 40.2673 93.5662 41.8841C92.6667 42.8823 91.6201 43.62 90.302 43.9428C88.6331 44.3521 86.7279 44.14 85.2572 43.2274C83.58 42.1855 82.6144 40.4664 82.1958 38.5752C81.5706 35.7491 81.6934 31.5255 83.3223 29.017C84.7586 26.804 86.9279 26.3659 89.3382 25.7926C90.3392 25.5546 91.3262 25.2616 92.3299 25.0405ZM88.5159 42.2357C89.9364 42.0255 90.9931 41.685 91.8759 40.4645C92.742 39.2682 93.022 37.7575 92.7532 36.3194C92.5364 35.1588 91.9252 34.0973 90.9289 33.4405C90.3187 33.0371 89.6108 32.8059 88.8796 32.7713C87.4972 32.9258 86.3605 33.2121 85.4405 34.3522C84.5772 35.4226 84.2079 36.8682 84.3986 38.2245C84.5725 39.4617 85.2488 40.6525 86.2647 41.3902C86.9521 41.8888 87.6898 42.1074 88.5159 42.2357Z" fill="#080C09"/>
<path d="M61.2475 25.921C62.0551 25.8399 62.8953 25.8787 63.7075 25.8731C63.5979 31.8191 63.7287 37.7826 63.6945 43.7315L61.5532 43.7101L61.5565 33.1914C61.5507 31.9863 61.5256 30.7786 61.5994 29.5752C59.626 33.2199 57.8455 37.0244 55.6841 40.5585L54.2927 40.551C52.1637 37.0607 50.392 33.2997 48.4233 29.7131C48.5003 31.3579 48.4482 33.0281 48.4493 34.6754L48.4541 43.7325C47.7402 43.7139 47.0291 43.7604 46.3143 43.7269L46.3153 32.892C46.3168 30.5629 46.2712 28.2192 46.3989 25.8933L48.7813 25.8946C49.4585 27.0558 50.0341 28.3 50.6494 29.4961C52.0767 32.2708 53.4896 35.0756 55.0294 37.7891C57.2926 33.9518 59.084 29.8185 61.2475 25.921Z" fill="#080C09"/>
<path d="M72.2607 30.5278C72.5875 30.5103 72.9146 30.4979 73.2417 30.4907C74.956 30.4626 76.6643 30.9303 77.9002 32.1726C79.5536 33.8344 79.7181 35.9287 79.7184 38.1417C76.1499 38.1873 72.5764 38.1389 69.0071 38.1547C69.1172 38.7436 69.228 39.3073 69.5082 39.845C70.066 40.9204 71.0342 41.7251 72.1934 42.0767C73.5809 42.4972 74.9765 42.2506 76.2246 41.5623C76.6433 41.2776 77.0262 40.9446 77.4159 40.6227C77.976 40.9427 78.5429 41.2097 79.135 41.4655C78.2543 42.6534 77.1191 43.5195 75.6823 43.913C73.8428 44.4163 71.6007 44.219 69.9436 43.2441C68.4907 42.3874 67.4482 40.9771 67.0557 39.3371C66.5662 37.365 66.8396 35.2079 67.9097 33.4733C68.9412 31.8012 70.3886 30.975 72.2607 30.5278ZM69.03 36.4747C70.7976 36.4608 72.5652 36.4552 74.3329 36.4598L77.6369 36.4617C77.3147 35.1058 76.9918 33.8488 75.73 33.055C74.8069 32.4742 73.6874 32.3857 72.6249 32.4743C71.4775 32.7392 70.5103 33.2614 69.8555 34.2727C69.4122 34.9575 69.2156 35.6933 69.03 36.4747Z" fill="#080C09"/>
<path d="M116.654 30.524C116.975 30.508 117.295 30.4973 117.616 30.4919C119.325 30.4734 121.034 30.9807 122.255 32.2283C123.86 33.8704 124.008 35.966 124.001 38.1335C120.447 38.1874 116.885 38.1446 113.33 38.153C113.377 38.8014 113.491 39.3596 113.794 39.9428C114.354 41.0228 115.284 41.7373 116.444 42.0768C117.995 42.5326 119.407 42.1959 120.779 41.4349C121.113 41.2042 121.411 40.9224 121.715 40.6526C122.279 40.9559 122.85 41.2015 123.444 41.4377C122.514 42.6592 121.358 43.5448 119.857 43.9252C117.99 44.3987 115.846 44.2173 114.18 43.2117C112.701 42.3187 111.687 40.847 111.298 39.1707C110.855 37.2563 111.164 35.0544 112.234 33.3946C113.304 31.7352 114.767 30.9321 116.654 30.524ZM113.31 36.4702C115.003 36.4655 116.697 36.4423 118.389 36.46L121.975 36.4581C121.603 35.0639 121.213 33.7056 119.864 32.9387C119.029 32.4632 118.011 32.3822 117.068 32.4776C115.949 32.6628 115.003 33.0838 114.308 34.0194C113.757 34.7603 113.523 35.5883 113.31 36.4702Z" fill="#080C09"/>
<path d="M153.559 30.7119C155.724 30.6104 157.92 30.684 160.089 30.6909C159.978 35.025 160.077 39.3884 160.075 43.7261L157.845 43.7019L157.843 39.2488C156.778 39.2423 155.375 39.0339 154.359 39.2758C154.042 39.3511 153.985 39.5112 153.808 39.7577C153.055 41.0926 152.218 42.381 151.462 43.7168C150.62 43.7354 149.776 43.7382 148.933 43.7233C149.758 42.1745 150.878 40.2033 151.97 38.8618C151.84 38.7986 151.712 38.7316 151.585 38.6628C150.633 38.1372 149.904 37.2916 149.625 36.2311C149.335 35.1256 149.493 33.8638 150.085 32.8822C150.882 31.5579 152.13 31.0488 153.559 30.7119ZM155.846 37.38C156.504 37.3744 157.176 37.3948 157.833 37.3474C157.824 35.806 157.828 34.2645 157.845 32.7231C156.537 32.7184 155.211 32.6833 153.905 32.7549C153.081 33.0131 152.437 33.2916 151.993 34.0859C151.698 34.6139 151.619 35.3105 151.818 35.8841C152.01 36.4395 152.456 36.8292 152.981 37.0665C153.866 37.4665 154.897 37.3883 155.846 37.38Z" fill="#080C09"/>
<path d="M99.5638 30.831C102.388 30.7291 105.236 30.7952 108.064 30.79L108.05 43.7239C107.346 43.7137 106.639 43.6839 105.941 43.7797L105.93 32.8237L104.732 32.872C103.663 32.8192 102.569 32.8896 101.498 32.9148C101.468 35.5219 101.458 40.9266 99.6317 42.856C98.721 43.8179 97.6921 43.9164 96.4484 43.9267C96.4391 43.2467 96.4028 42.575 96.3535 41.8969C96.6782 41.8671 97.0224 41.8448 97.3387 41.7648C99.3043 41.269 99.3387 34.7739 99.388 33.1362C99.4075 32.498 99.2661 31.3505 99.5638 30.831Z" fill="#080C09"/>
<path d="M145.372 30.7358L145.661 30.7188C145.695 30.7657 145.745 30.8049 145.766 30.8597C145.863 31.1141 145.763 42.4126 145.764 43.7187L143.87 43.7317L143.731 43.7038C143.427 43.1559 143.732 32.3891 143.637 30.7615C144.215 30.7687 144.794 30.7493 145.372 30.7358Z" fill="#080C09"/>
<path d="M143.597 25.8581L145.775 25.8516C145.752 26.6247 145.77 27.3985 145.781 28.1717L143.538 28.1886C143.571 27.4121 143.59 26.6352 143.597 25.8581Z" fill="#080C09"/>
</g>
<defs>
<clipPath id="clip0_8205_59582">
<rect width="157.178" height="34.7907" fill="white" transform="translate(2.91064 18.0618)"/>
</clipPath>
</defs>
</svg>
