<svg aria-hidden="true" style="position:absolute;width:0;height:0;overflow:hidden" xmlns="http://www.w3.org/2000/svg">
  <defs>
    <symbol id="logo" viewBox="0 0 107 32">
      <path fill="#ff6b0a" style="fill:var(--color1, #ff6b0a)" d="M106.667 0v32H59.536V0h47.131zM74.42 8.811v13.927l.001.044a.842.842 0 0 1-.001.087c-.007.08.015.128.107.115a.485.485 0 0 1 .066-.001l.033.001h3.582c.075.001.112.001.129-.017s.016-.051.014-.116l-.001-.078V8.83l-.001-.033a.485.485 0 0 1 .001-.066c.008-.082-.02-.125-.109-.115-.018.002-.036.001-.054.001l-.028-.001h-3.55l-.062-.001c-.065-.001-.098-.001-.114.015s-.016.049-.015.116l.001.064zm19.579-.194h-5.863c-1.954 0-3.908 0-5.86-.002h-.133c-.066-.003-.089.028-.084.089a.486.486 0 0 1 0 .054v3.398c0 .072-.001.107.017.124s.051.017.118.016H85.923c.12 0 .18 0 .209.03s.029.087.029.2v10.335c-.001.059-.001.09.014.106.017.018.052.017.127.017h3.571c.111 0 .166 0 .193-.028s.027-.08.027-.186V12.488l-.001-.059c-.001-.063-.001-.097.015-.114.018-.019.055-.018.133-.018h3.798c.162 0 .162 0 .164-.159V8.759c.001-.072.001-.108-.016-.126s-.053-.017-.123-.016L94 8.618z"/>
      <path fill="#010101" style="fill:var(--color2, #010101)" d="m47.132 0 12.403 16-12.403 16H0V0h47.132zm-26.38 13.662.215.174a.371.371 0 0 0 .106-.107.256.256 0 0 1 .02-.026c.254-.302.507-.606.76-.91.507-.606 1.012-1.212 1.518-1.82.101-.122.097-.177-.018-.276a12.617 12.617 0 0 0-.277-.233c-.803-.657-1.685-1.17-2.684-1.467a9.43 9.43 0 0 0-2.043-.353c-.905-.061-1.802-.031-2.691.174-3.112.716-5.434 3.292-5.707 6.594a7.795 7.795 0 0 0 .225 2.638c.519 1.96 1.645 3.461 3.434 4.45.975.539 2.03.823 3.14.912.94.076 1.87.018 2.788-.189 1.553-.35 2.925-1.056 4.146-2.067a.333.333 0 0 0 .137-.289c-.004-1.572-.004-3.145-.003-4.717v-1.179a.66.66 0 0 0-.003-.062c-.003-.046-.006-.092.006-.134.015-.049-.012-.077-.037-.104-.021-.022-.042-.044-.039-.077.007-.054-.03-.062-.073-.062h-6.556l-.038.001c-.026.001-.052.002-.077-.001-.066-.007-.087.026-.083.087a.657.657 0 0 1 .001.077l-.001.038V17.839l-.001.074c-.001.063-.002.096.014.112s.052.017.125.016H19.772c.072-.001.107-.001.124.016.016.016.015.048.014.11l-.001.078v.679c0 .308 0 .311-.279.445-.818.391-1.681.503-2.573.391-.991-.123-1.784-.591-2.365-1.401-.378-.527-.585-1.122-.662-1.763-.097-.818.002-1.605.373-2.348.448-.892 1.125-1.533 2.098-1.827.682-.207 1.373-.153 2.056-.003.619.135 1.159.437 1.657.816.182.138.359.281.539.427zm18.346-2.98c-1.528-1.39-3.348-2.052-5.229-2.066-.869.002-1.518.072-2.207.251-1.998.521-3.563 1.638-4.602 3.422-1.067 1.83-1.283 3.793-.687 5.812.667 2.257 2.089 3.9 4.29 4.815 1.69.701 3.44.795 5.206.332 2.051-.537 3.624-1.725 4.654-3.578.869-1.562 1.102-3.238.778-4.987-.291-1.572-1.017-2.919-2.203-4zm-8.437 3.528c.666-1.227 1.729-1.815 2.762-1.838 2.094-.005 3.464 1.173 3.837 2.806.226.984.125 1.94-.358 2.834-.57 1.05-1.458 1.661-2.654 1.797-1.156.133-2.165-.194-2.99-1.025a3.579 3.579 0 0 1-.983-1.914c-.172-.928-.066-1.827.386-2.66z"/>
    </symbol>
    <symbol id="javascript" viewBox="0 0 32 32">
      <path fill="#f7df1e" style="fill:var(--color3, #f7df1e)" d="M0 0h32v32H0V0z"/>
      <path style="fill:var(--color4, #000)" d="m8.414 26.741 2.449-1.482c.473.838.902 1.546 1.933 1.546.988 0 1.611-.387 1.611-1.89V14.69h3.007v10.267c0 3.115-1.826 4.532-4.489 4.532-2.406 0-3.802-1.246-4.511-2.75zm10.634-.322 2.448-1.418c.645 1.053 1.482 1.826 2.964 1.826 1.246 0 2.041-.623 2.041-1.482 0-1.031-.816-1.396-2.191-1.997l-.752-.323c-2.17-.923-3.609-2.083-3.609-4.532 0-2.256 1.718-3.974 4.404-3.974 1.912 0 3.287.666 4.274 2.406l-2.341 1.504c-.516-.924-1.074-1.289-1.933-1.289-.881 0-1.439.558-1.439 1.289 0 .902.558 1.268 1.847 1.826l.752.322c2.556 1.096 3.995 2.212 3.995 4.726 0 2.707-2.127 4.189-4.983 4.189-2.792 0-4.597-1.332-5.477-3.072z"/>
    </symbol>
    <symbol id="icon-company-logo" viewBox="0 0 74 32">
      <path d="M8.55 8.325c4.337-0.405 8.18 2.786 8.581 7.123s-2.794 8.177-7.132 8.573c-4.332 0.395-8.165-2.793-8.565-7.125s2.785-8.168 7.116-8.572zM10.123 23.187c3.872-0.465 6.633-3.982 6.166-7.854s-3.986-6.631-7.857-6.161c-3.868 0.469-6.624 3.984-6.157 7.852s3.98 6.627 7.849 6.163z"></path>
      <path d="M12.367 12.071l0.907-0.006c0.018 2.618 0.019 5.237 0.004 7.856l-0.938 0.012-0.001-4.92-0.004-1.347c-0.524 0.994-1.119 1.95-1.686 2.921-0.359 0.615-0.693 1.321-1.137 1.874-0.106 0.039-0.221 0.042-0.332 0.016-0.036-0.008-0.112-0.037-0.139-0.059-0.24-0.191-2.495-4.152-2.855-4.753 0.092 0.712 0.034 1.49 0.034 2.209l-0.003 4.040-0.959 0.003c0.030-2.614-0.017-5.23 0.008-7.845l1.045 0.005c0.465 0.831 0.963 1.644 1.444 2.464 0.512 0.872 1.010 1.755 1.554 2.608 0.553-1.010 1.172-1.99 1.767-2.977 0.421-0.699 0.82-1.435 1.292-2.101z"></path>
      <path d="M60.401 13.937c0.185-0.012 0.375-0.017 0.56-0.014 0.692 0.012 1.398 0.382 1.871 0.873 0.59 0.611 0.864 1.463 0.844 2.304-0.020 0.855-0.34 1.668-0.97 2.255-0.558 0.52-1.273 0.798-2.038 0.769-0.876-0.033-1.456-0.402-2.043-1.029-0.023 0.359-0.016 0.722-0.019 1.081 0.004 0.714 0.003 1.428-0.003 2.143-0.333 0.033-0.668 0.030-1.001-0.009 0.054-1.106 0.006-2.238 0.007-3.346 0-1.649 0.026-3.302-0.011-4.951l0.99-0.004c-0.019 0.368-0.015 0.739-0.020 1.108 0.537-0.67 0.984-0.993 1.831-1.179zM60.83 19.238c0.616-0.116 1.093-0.367 1.454-0.898 0.354-0.529 0.481-1.178 0.352-1.801-0.11-0.555-0.439-1.080-0.922-1.383-0.381-0.239-0.793-0.305-1.232-0.292-0.61 0.115-1.105 0.333-1.471 0.865-0.345 0.501-0.493 1.215-0.377 1.811 0.111 0.572 0.45 1.075 0.94 1.39 0.391 0.246 0.804 0.317 1.256 0.309z"></path>
      <path d="M41.917 11.453c0.162 0.166 0.212 0.604 0.308 0.838-1.039 0.436-2.546 0.347-3.382 1.145-0.5 0.478-0.619 1.138-0.63 1.796 0.447-0.552 0.937-1 1.671-1.123 0.741-0.124 1.526 0.019 2.134 0.472 0.653 0.486 1.016 1.191 1.126 1.989 0.125 0.917-0.103 1.782-0.666 2.515-0.408 0.452-0.882 0.787-1.479 0.933-0.756 0.185-1.619 0.089-2.286-0.324-0.76-0.472-1.197-1.251-1.387-2.108-0.283-1.281-0.228-3.194 0.51-4.331 0.651-1.003 1.634-1.201 2.726-1.461 0.453-0.108 0.901-0.241 1.356-0.341zM40.189 19.244c0.644-0.095 1.123-0.25 1.523-0.803 0.392-0.542 0.519-1.227 0.397-1.878-0.098-0.526-0.375-1.007-0.827-1.304-0.276-0.183-0.597-0.288-0.929-0.303-0.626 0.070-1.141 0.2-1.558 0.716-0.391 0.485-0.559 1.14-0.472 1.755 0.079 0.561 0.385 1.1 0.846 1.434 0.311 0.226 0.645 0.325 1.020 0.383z"></path>
      <path d="M27.834 11.851c0.366-0.037 0.747-0.019 1.115-0.022-0.050 2.694 0.010 5.396-0.006 8.092l-0.97-0.010 0.002-4.766c-0.003-0.546-0.014-1.093 0.019-1.639-0.894 1.652-1.701 3.375-2.68 4.977l-0.63-0.003c-0.965-1.581-1.767-3.286-2.66-4.911 0.035 0.745 0.011 1.502 0.012 2.248l0.002 4.104c-0.323-0.008-0.646 0.013-0.97-0.003l0-4.91c0.001-1.055-0.020-2.117 0.038-3.171l1.080 0.001c0.307 0.526 0.568 1.090 0.846 1.632 0.647 1.257 1.287 2.528 1.985 3.758 1.025-1.739 1.837-3.612 2.818-5.378z"></path>
      <path d="M32.824 13.939c0.148-0.008 0.296-0.014 0.444-0.017 0.777-0.013 1.551 0.199 2.111 0.762 0.749 0.753 0.824 1.702 0.824 2.705-1.617 0.021-3.236-0.001-4.854 0.006 0.050 0.267 0.1 0.522 0.227 0.766 0.253 0.487 0.691 0.852 1.217 1.011 0.629 0.191 1.261 0.079 1.827-0.233 0.19-0.129 0.363-0.28 0.54-0.426 0.254 0.145 0.511 0.266 0.779 0.382-0.399 0.538-0.913 0.931-1.564 1.109-0.834 0.228-1.85 0.139-2.6-0.303-0.658-0.388-1.131-1.027-1.309-1.77-0.222-0.894-0.098-1.871 0.387-2.657 0.467-0.758 1.123-1.132 1.972-1.335zM31.36 16.633c0.801-0.006 1.602-0.009 2.403-0.007l1.497 0.001c-0.146-0.614-0.292-1.184-0.864-1.544-0.418-0.263-0.925-0.303-1.407-0.263-0.52 0.12-0.958 0.357-1.255 0.815-0.201 0.31-0.29 0.644-0.374 0.998z"></path>
      <path d="M52.939 13.937c0.145-0.007 0.29-0.012 0.436-0.014 0.775-0.008 1.549 0.221 2.102 0.787 0.728 0.744 0.794 1.694 0.791 2.676-1.61 0.024-3.224 0.005-4.835 0.009 0.022 0.294 0.073 0.547 0.21 0.811 0.254 0.489 0.675 0.813 1.2 0.967 0.703 0.207 1.343 0.054 1.964-0.291 0.152-0.105 0.287-0.232 0.424-0.355 0.255 0.137 0.514 0.249 0.783 0.356-0.421 0.553-0.945 0.955-1.626 1.127-0.846 0.215-1.817 0.132-2.572-0.323-0.67-0.405-1.13-1.072-1.306-1.831-0.201-0.867-0.061-1.865 0.424-2.617s1.148-1.116 2.003-1.301zM51.424 16.631c0.767-0.002 1.534-0.013 2.301-0.005l1.625-0.001c-0.169-0.632-0.345-1.247-0.956-1.595-0.379-0.215-0.84-0.252-1.267-0.209-0.507 0.084-0.936 0.275-1.251 0.699-0.25 0.336-0.356 0.711-0.452 1.111z"></path>
      <path d="M69.662 14.022c0.981-0.046 1.976-0.013 2.959-0.010-0.050 1.964-0.005 3.941-0.006 5.907l-1.010-0.011-0.001-2.018c-0.483-0.003-1.118-0.097-1.579 0.012-0.144 0.034-0.169 0.107-0.25 0.218-0.341 0.605-0.721 1.189-1.063 1.794-0.382 0.008-0.764 0.010-1.146 0.003 0.374-0.702 0.881-1.595 1.376-2.203-0.059-0.029-0.117-0.059-0.175-0.090-0.431-0.238-0.762-0.621-0.888-1.102-0.131-0.501-0.060-1.073 0.209-1.517 0.361-0.6 0.927-0.831 1.574-0.983zM70.698 17.044c0.298-0.003 0.603 0.007 0.9-0.015-0.004-0.698-0.002-1.397 0.005-2.095-0.593-0.002-1.193-0.018-1.785 0.014-0.373 0.117-0.665 0.243-0.867 0.603-0.133 0.239-0.169 0.555-0.079 0.815 0.087 0.252 0.289 0.428 0.527 0.536 0.401 0.181 0.869 0.146 1.298 0.142z"></path>
      <path d="M45.196 14.076c1.28-0.046 2.57-0.016 3.851-0.019l-0.006 5.861c-0.319-0.005-0.64-0.018-0.956 0.025l-0.005-4.964-0.543 0.022c-0.485-0.024-0.98 0.008-1.466 0.019-0.014 1.181-0.018 3.63-0.846 4.505-0.413 0.436-0.879 0.481-1.443 0.485-0.004-0.308-0.021-0.612-0.043-0.92 0.147-0.013 0.303-0.024 0.446-0.060 0.891-0.225 0.906-3.168 0.929-3.91 0.009-0.289-0.055-0.809 0.080-1.045z"></path>
      <path d="M65.952 14.033l0.131-0.008c0.016 0.021 0.038 0.039 0.047 0.064 0.044 0.115-0.001 5.235-0.001 5.827l-0.859 0.006-0.063-0.013c-0.137-0.248 0-5.127-0.043-5.864 0.262 0.003 0.524-0.006 0.786-0.012z"></path>
      <path d="M65.147 11.823l0.987-0.003c-0.011 0.35-0.003 0.701 0.002 1.051l-1.016 0.008c0.015-0.352 0.024-0.704 0.026-1.056z"></path>
    </symbol>
    <symbol id="icon-instagram" viewBox="0 0 32 32">
      <path d="M15.998 6.419c3.078 0 3.442 0.014 4.652 0.068 1.125 0.050 1.732 0.238 2.137 0.396 0.536 0.207 0.922 0.459 1.323 0.86 0.405 0.405 0.652 0.788 0.864 1.323 0.158 0.405 0.346 1.017 0.396 2.137 0.054 1.215 0.068 1.579 0.068 4.653s-0.014 3.442-0.068 4.653c-0.050 1.125-0.238 1.732-0.396 2.137-0.207 0.536-0.459 0.922-0.86 1.323-0.405 0.405-0.788 0.652-1.323 0.864-0.405 0.158-1.017 0.346-2.137 0.396-1.215 0.054-1.58 0.068-4.653 0.068s-3.442-0.014-4.653-0.068c-1.125-0.050-1.732-0.238-2.137-0.396-0.536-0.207-0.922-0.459-1.323-0.86-0.405-0.405-0.652-0.788-0.864-1.323-0.158-0.405-0.346-1.017-0.396-2.137-0.054-1.215-0.068-1.579-0.068-4.653s0.014-3.442 0.068-4.653c0.050-1.125 0.238-1.732 0.396-2.137 0.207-0.536 0.459-0.922 0.86-1.323 0.405-0.405 0.788-0.652 1.323-0.864 0.405-0.158 1.017-0.346 2.137-0.396 1.21-0.054 1.575-0.068 4.653-0.068h0.001zM15.998 4.345c-3.127 0-3.518 0.014-4.747 0.068-1.224 0.054-2.065 0.252-2.794 0.536-0.76 0.297-1.404 0.688-2.042 1.332-0.644 0.639-1.035 1.282-1.332 2.038-0.284 0.734-0.482 1.57-0.536 2.794-0.054 1.233-0.068 1.624-0.068 4.751s0.014 3.518 0.068 4.747c0.054 1.224 0.252 2.065 0.536 2.794 0.297 0.76 0.688 1.404 1.332 2.042 0.639 0.639 1.282 1.035 2.038 1.328 0.734 0.284 1.57 0.482 2.794 0.536 1.228 0.054 1.62 0.068 4.747 0.068s3.519-0.014 4.747-0.068c1.224-0.054 2.065-0.252 2.794-0.536 0.756-0.292 1.4-0.688 2.038-1.328s1.035-1.282 1.328-2.038c0.284-0.734 0.482-1.57 0.536-2.794 0.054-1.228 0.068-1.62 0.068-4.747s-0.014-3.518-0.068-4.747c-0.054-1.224-0.252-2.065-0.536-2.794-0.284-0.765-0.675-1.408-1.318-2.047-0.639-0.639-1.282-1.035-2.038-1.327-0.734-0.284-1.57-0.482-2.794-0.536-1.233-0.058-1.624-0.072-4.751-0.072l-0.001 0.001z"></path>
      <path d="M15.998 9.946c-3.266 0-5.917 2.65-5.917 5.917s2.65 5.917 5.917 5.917c3.267 0 5.917-2.65 5.917-5.917s-2.65-5.917-5.917-5.917zM15.998 19.701c-2.119 0-3.838-1.718-3.838-3.838s1.718-3.838 3.838-3.838c2.119 0 3.838 1.718 3.838 3.838s-1.718 3.838-3.838 3.838z"></path>
      <path d="M23.529 9.713c0 0.763-0.618 1.381-1.381 1.381s-1.381-0.618-1.381-1.381 0.619-1.381 1.381-1.381c0.763 0 1.381 0.618 1.381 1.381z"></path>
    </symbol>
    <symbol id="icon-youtube" viewBox="0 0 32 32">
      <path d="M28.279 9.724c-0.146-0.541-0.431-1.034-0.826-1.431s-0.888-0.683-1.429-0.83c-2.004-0.55-10.024-0.559-10.024-0.559s-8.018-0.009-10.024 0.517c-0.54 0.154-1.032 0.444-1.428 0.842s-0.683 0.892-0.833 1.433c-0.529 2.004-0.534 6.162-0.534 6.162s-0.005 4.178 0.52 6.162c0.294 1.097 1.158 1.964 2.257 2.259 2.025 0.55 10.022 0.559 10.022 0.559s8.019 0.009 10.024-0.516c0.541-0.147 1.034-0.432 1.431-0.828s0.683-0.888 0.831-1.429c0.53-2.003 0.534-6.159 0.534-6.159s0.026-4.179-0.521-6.184zM13.435 19.711l0.006-7.68 6.665 3.846-6.671 3.834z"></path>
    </symbol>
    <symbol id="icon-facebook" viewBox="0 0 32 32">
      <path d="M28.8 16.253c0-7.112-5.731-12.878-12.8-12.878s-12.8 5.766-12.8 12.878c0 6.428 4.681 11.756 10.8 12.722v-8.999h-3.25v-3.723h3.25v-2.837c0-3.228 1.911-5.010 4.835-5.010 1.401 0 2.865 0.252 2.865 0.252v3.169h-1.614c-1.59 0-2.086 0.993-2.086 2.011v2.416h3.55l-0.567 3.723h-2.983v8.999c6.119-0.966 10.8-6.294 10.8-12.722z"></path>
    </symbol>
    <symbol id="icon-arrow-left" viewBox="0 0 30 32">
      <path d="M17.508 27.142l-9.158-9.159h20.45v-4.267h-20.45l9.158-9.158-3.017-3.017-14.308 14.308 14.308 14.308 3.017-3.017z"></path>
    </symbol>
    <symbol id="icon-arrow-right" viewBox="0 0 30 32">
      <path d="M12.358 27.142l3.017 3.017 14.308-14.308-14.308-14.308-3.017 3.017 9.158 9.158h-20.45v4.267h20.45l-9.158 9.159z"></path>
    </symbol>
    <symbol id="icon-star" viewBox="0 0 32 32" >
      <path fill="red" d="M7.226 19.717l-2.384 10.323c-0.074 0.313-0.052 0.64 0.064 0.94s0.318 0.558 0.582 0.74
       c0.264 0.183 0.577 0.281 0.899 0.283s0.635-0.093 0.902-0.273l8.712-5.808 8.712 5.808
       c0.273 0.181 0.594 0.274 0.921 0.267s0.644-0.114 0.908-0.307c0.264-0.193 0.463-0.462 0.57-0.771
       s0.116-0.644 0.028-0.959l-2.926-10.24 7.258-6.531c0.232-0.209 0.399-0.482 0.477-0.785
       s0.068-0.622-0.033-0.918-0.285-0.556-0.532-0.749c-0.247-0.192-0.544-0.308-0.856-0.333
       l-9.122-0.726-3.947-8.738c-0.126-0.281-0.33-0.52-0.589-0.688s-0.56-0.257-0.868-0.257
       c-0.308 0-0.61 0.089-0.868 0.257s-0.463 0.407-0.589 0.688l-3.947 8.738-9.122 0.725
       c-0.306 0.024-0.599 0.136-0.844 0.323s-0.43 0.439-0.534 0.728c-0.104 0.289-0.123 0.602-0.055 0.902
       s0.223 0.573 0.443 0.788l6.742 6.571zM11.79 12.795c0.286-0.023 0.56-0.121 0.794-0.286s0.42-0.39 0.537-0.651
       l2.878-6.37 2.878 6.37c0.117 0.261 0.303 0.486 0.537 0.651s0.508 0.264 0.794 0.286l6.355 0.504
       -5.234 4.71c-0.454 0.41-0.635 1.04-0.469 1.629l2.005 7.016-5.978-3.986c-0.262-0.176-0.571-0.27-0.887-0.27
       s-0.625 0.094-0.887 0.27l-6.246 4.165 1.68-7.274c0.062-0.268 0.053-0.546-0.024-0.81s-0.221-0.503-0.418-0.694
       l-4.861-4.739 6.544-0.522z"/>
      <path fill="none" stroke="black" stroke-width="1.5" d="M7.226 19.717l-2.384 10.323c-0.074 0.313-0.052 0.64 0.064 0.94s0.318 0.558 0.582 0.74
       c0.264 0.183 0.577 0.281 0.899 0.283s0.635-0.093 0.902-0.273l8.712-5.808 8.712 5.808
       c0.273 0.181 0.594 0.274 0.921 0.267s0.644-0.114 0.908-0.307c0.264-0.193 0.463-0.462 0.57-0.771
       s0.116-0.644 0.028-0.959l-2.926-10.24 7.258-6.531c0.232-0.209 0.399-0.482 0.477-0.785
       s0.068-0.622-0.033-0.918-0.285-0.556-0.532-0.749c-0.247-0.192-0.544-0.308-0.856-0.333
       l-9.122-0.726-3.947-8.738c-0.126-0.281-0.33-0.52-0.589-0.688s-0.56-0.257-0.868-0.257
       c-0.308 0-0.61 0.089-0.868 0.257s-0.463 0.407-0.589 0.688l-3.947 8.738-9.122 0.725
       c-0.306 0.024-0.599 0.136-0.844 0.323s-0.43 0.439-0.534 0.728c-0.104 0.289-0.123 0.602-0.055 0.902
       s0.223 0.573 0.443 0.788l6.742 6.571zM11.79 12.795c0.286-0.023 0.56-0.121 0.794-0.286s0.42-0.39 0.537-0.651
       l2.878-6.37 2.878 6.37c0.117 0.261 0.303 0.486 0.537 0.651s0.508 0.264 0.794 0.286l6.355 0.504
       -5.234 4.71c-0.454 0.41-0.635 1.04-0.469 1.629l2.005 7.016-5.978-3.986c-0.262-0.176-0.571-0.27-0.887-0.27
       s-0.625 0.094-0.887 0.27l-6.246 4.165 1.68-7.274c0.062-0.268 0.053-0.546-0.024-0.81s-0.221-0.503-0.418-0.694
       l-4.861-4.739 6.544-0.522z"/>
    </symbol>
    <symbol id="icon-right-arrow-alt" viewBox="0 0 32 32">
      <path d="M15.057 23.057l1.885 1.885 8.943-8.943-8.943-8.943-1.885 1.885 5.724 5.724h-12.781v2.667h12.781l-5.724 5.724z"></path>
    </symbol>
    <symbol id="icon-left-arrow-alt" viewBox="0 0 32 32">
      <path d="M16.943 23.057l-5.724-5.724h12.781v-2.667h-12.781l5.724-5.724-1.885-1.885-8.943 8.943 8.943 8.943 1.885-1.885z"></path>
    </symbol>
    <symbol id="icon-chevron-down" viewBox="0 0 32 32">
      <path d="M21.724 11.057l-5.724 5.724-5.724-5.724-1.885 1.885 7.609 7.609 7.609-7.609-1.885-1.885z"></path>
    </symbol>
    <symbol id="icon-menu" viewBox="0 0 32 32">
      <path d="M5.333 8h21.333v2.667h-21.333v-2.667zM5.333 14.667h21.333v2.667h-21.333v-2.667zM5.333 21.333h21.333v2.667h-21.333v-2.667z"></path>
    </symbol>
    <symbol id="icon-x" viewBox="0 0 32 32">
      <path d="M21.589 8.459l-5.657 5.656-5.656-5.656-1.885 1.885 5.656 5.656-5.656 5.656 1.885 1.885 5.656-5.656 5.657 5.656 1.885-1.885-5.656-5.656 5.656-5.656-1.885-1.885z"></path>
    </symbol>
  
  <symbol id="icon-Dot" viewBox="0 0 32 32">
    <path d="M30.222 15.75c0 7.855-6.367 14.222-14.222 14.222s-14.222-6.367-14.222-14.222c0-7.855 6.367-14.222 14.222-14.222s14.222 6.367 14.222 14.222z"></path>
  </symbol>
  <symbol id="icon-arrow-left" viewBox="0 0 30 32">
    <path d="M17.508 27.142l-9.158-9.159h20.45v-4.267h-20.45l9.158-9.158-3.017-3.017-14.308 14.308 14.308 14.308 3.017-3.017z"></path>
  </symbol>
  <symbol id="icon-arrow-right" viewBox="0 0 30 32">
    <path d="M12.358 27.142l3.017 3.017 14.308-14.308-14.308-14.308-3.017 3.017 9.158 9.158h-20.45v4.267h20.45l-9.158 9.159z"></path>
  </symbol>
</defs>
</svg>